<svg width="100" height="100" fill="none" xmlns="http://www.w3.org/2000/svg"><circle cx="50" cy="50" r="50" fill="#4B340A"/><path opacity=".25" d="M96.22 69.09L57.235 30.48 41.9 46.443l8.078 7.579L28.2 71.093 56.53 99.578c9.432-.853 30.574-8.145 39.689-30.488z" fill="#000"/><path d="M31.228 72.527s-3.755 0-3.755-3.754c0-3.755 3.755-15.018 22.527-15.018 18.773 0 22.527 11.263 22.527 15.018 0 3.754-3.754 3.754-3.754 3.754H31.228zM50 50a11.263 11.263 0 100-22.527A11.263 11.263 0 0050 50z" fill="#fff"/></svg>