<svg width="100" height="100" fill="none" xmlns="http://www.w3.org/2000/svg"><circle cx="50" cy="50" r="50" fill="#E4AE52"/><path opacity=".25" d="M98.786 60.98l-30.05-29.672-14.47 13.866L43.952 34.99l-13.53 12.178 7.55 7.456L21.387 70.59l29.25 29.402c12.883.032 40.55-7.726 48.15-39.01z" fill="#000"/><path d="M46.313 71.75s-3.688 0-3.688-3.625 3.688-14.5 18.438-14.5c14.75 0 18.437 10.875 18.437 14.5s-3.688 3.625-3.688 3.625h-29.5zM61.063 50a11.16 11.16 0 007.822-3.185 10.783 10.783 0 003.24-7.69c0-2.884-1.165-5.65-3.24-7.69a11.16 11.16 0 00-7.823-3.185 11.16 11.16 0 00-7.822 3.185 10.783 10.783 0 00-3.24 7.69c0 2.884 1.166 5.65 3.24 7.69A11.16 11.16 0 0061.062 50z" fill="#fff"/><path fill-rule="evenodd" clip-rule="evenodd" d="M39.734 71.75a7.996 7.996 0 01-.797-3.625c0-4.912 2.508-9.969 7.14-13.485a23.695 23.695 0 00-7.14-1.015c-14.75 0-18.437 10.875-18.437 14.5s3.688 3.625 3.688 3.625h15.546z" fill="#fff"/><path d="M37.094 50a9.3 9.3 0 006.518-2.654 8.985 8.985 0 002.7-6.408 8.985 8.985 0 00-2.7-6.409 9.3 9.3 0 00-6.518-2.654 9.3 9.3 0 00-6.519 2.654 8.985 8.985 0 00-2.7 6.408c0 2.404.971 4.71 2.7 6.409A9.3 9.3 0 0037.094 50z" fill="#fff"/></svg>