<svg width="100" height="100" fill="none" xmlns="http://www.w3.org/2000/svg"><path d="M50 100c27.614 0 50-22.386 50-50S77.614 0 50 0 0 22.386 0 50s22.386 50 50 50z" fill="#4B340A"/><path opacity=".25" d="M57.858 99.346c.213-.023.425-.048.638-.075 1.643-.284 3.27-.65 4.875-1.097a49.997 49.997 0 004.748-1.57 49.997 49.997 0 008.894-4.53 49.975 49.975 0 007.82-6.204 49.988 49.988 0 003.41-3.659 50.016 50.016 0 003.02-3.981 49.966 49.966 0 004.793-8.759 49.971 49.971 0 001.51-4.132L76.45 44.223c-.328-.115-.606-.23-1.104-.353-1.507-.37-3.618-.703-5.785-1.007-.558-.077-1.055-.15-1.615-.225L50.158 24.85c-.214.273-.413.504-.684.939-.819 1.314-1.785 3.213-2.742 5.175-.956 1.963-1.907 3.99-2.771 5.665a29.977 29.977 0 01-1.247 2.223c-.402.635-.688 1.146-1.42 1.668-.732.521-1.318.63-2.051.803-.733.17-1.575.316-2.51.451-1.868.273-4.1.516-6.272.781-2.171.266-4.286.563-5.799.91-.5.115-.782.226-1.112.337.196.289.353.548.684.94.615.727 1.424 1.574 2.321 2.47l8.353 8.354c.34.418.64.829.85 1.488.27.855.196 1.437.134 2.186-.061.748-.186 1.587-.345 2.516-.318 1.857-.784 4.049-1.202 6.19-.418 2.142-.787 4.243-.924 5.784-.045.51-.028.811-.022 1.157l24.459 24.46z" fill="#000"/><path d="M50.15 24.836c.21.277.403.512.667.952.798 1.327 1.735 3.242 2.66 5.219.924 1.977 1.842 4.022 2.679 5.71.418.845.814 1.6 1.205 2.241.392.642.675 1.16 1.398 1.692.723.533 1.303.651 2.033.836.73.183 1.57.34 2.501.491 1.865.303 4.095.577 6.261.878 2.167.302 4.278.631 5.784 1.002.499.123.78.24 1.108.355-.2.284-.364.54-.7.926-1.02 1.167-2.557 2.648-4.157 4.135-1.6 1.488-3.267 2.99-4.619 4.306a29.91 29.91 0 00-1.763 1.836c-.491.57-.898.998-1.183 1.849-.285.85-.218 1.436-.168 2.186.05.75.16 1.593.304 2.524.288 1.862.715 4.062 1.098 6.21.383 2.147.72 4.251.832 5.795.036.51.013.813.002 1.16-.333-.1-.628-.18-1.1-.378-1.428-.607-3.315-1.606-5.228-2.664-1.913-1.058-3.861-2.174-5.534-3.05-.836-.438-1.6-.816-2.295-1.106-.695-.287-1.23-.542-2.129-.55-.9 0-1.438.24-2.137.516-.7.28-1.47.645-2.314 1.069-1.686.849-3.652 1.933-5.582 2.96-1.93 1.027-3.833 1.996-5.27 2.58-.476.194-.772.265-1.106.362-.005-.347-.024-.65.02-1.16.138-1.542.508-3.64.926-5.781.418-2.142.88-4.335 1.199-6.191.159-.929.283-1.77.344-2.52.062-.748.139-1.332-.132-2.188-.271-.856-.671-1.29-1.153-1.867a29.774 29.774 0 00-1.733-1.864c-1.331-1.338-2.973-2.867-4.549-4.38-1.576-1.514-3.088-3.019-4.089-4.202-.33-.39-.49-.65-.686-.937.33-.112.613-.224 1.114-.34 1.512-.347 3.628-.644 5.8-.909 2.17-.265 4.404-.504 6.273-.776.935-.135 1.777-.28 2.51-.452.732-.172 1.314-.28 2.046-.802.732-.522 1.023-1.035 1.425-1.67.401-.636.81-1.383 1.241-2.22.865-1.675 1.816-3.705 2.772-5.668.956-1.962 1.924-3.861 2.743-5.176.271-.435.469-.666.682-.94v.001z" fill="#fff"/></svg>