<svg width="89" height="88" fill="none" xmlns="http://www.w3.org/2000/svg"><g clip-path="url(#clip0)"><path d="M0 51c0 28.167 22.834 51 51 51 14.793 0 29.987-4.91 39.303-14.972C98.724 77.931 102 64.374 102 51c0-28.166-22.834-51-51-51S0 22.834 0 51z" fill="#E4AE52"/><path opacity=".25" d="M58.908 100a42.996 42.996 0 001.69-.205 43.132 43.132 0 004.257-.973 43.22 43.22 0 004.14-1.395c1.358-.534 4.688.864 5.986.195a43.481 43.481 0 003.783-2.205 43.675 43.675 0 006.826-5.492c1.045-1.03 3.494-.711 4.432-1.842.937-1.128.687-4.545 1.507-5.762.822-1.22-.416-4.48.281-5.778a44.59 44.59 0 003.394-8.14 44.82 44.82 0 001.082-4.291 44.9 44.9 0 00.65-4.373c.027-.416.048-.832.064-1.249L71.512 31.756a.77.77 0 00-.549-.232h-5.797l-8.328-8.448a6.834 6.834 0 00-2.164-1.481 6.673 6.673 0 00-2.59-.54L52.032 21a.897.897 0 00-.303.06v.005a6.832 6.832 0 00-6.496 6.832c0 .649.119 1.274.32 1.87.201.596.488 1.161.82 1.703H33.105a.784.784 0 00-.778.789v13.453c-1.07-.674-2.248-1.152-3.528-1.152-3.746 0-6.799 3.097-6.799 6.897 0 1.9.767 3.627 1.998 4.876l8.329 8.448v5.875c0 .219.083.414.223.557L58.908 100z" fill="#000"/><path d="M52.187 21a.902.902 0 00-.303.063l-.002.003c-3.616.17-6.528 3.114-6.528 6.769.002 1.285.476 2.468 1.145 3.541h-13.34a.781.781 0 00-.78.781v13.328c-1.075-.667-2.257-1.142-3.543-1.141-3.766 0-6.836 3.068-6.836 6.833 0 3.764 3.07 6.833 6.836 6.833 1.286-.002 2.47-.478 3.543-1.147v13.333c0 .432.35.781.78.781h14.798c.71-.001 1.05-.873.528-1.354-.028-.028-.055-.05-.082-.077h-.005c-.006-.003-.009 0-.012 0a5.235 5.235 0 01-.326-.375l-.003-.003a5.273 5.273 0 01-.302-.427h-.003c-.094-.145-.18-.3-.259-.454v-.003a5.348 5.348 0 01-.217-.479v-.003a5.152 5.152 0 01-.28-1.01l-.003-.002a5.253 5.253 0 01-.065-.519 5.567 5.567 0 01.018-.897 4.84 4.84 0 01.08-.518v-.003a5.34 5.34 0 01.537-1.474v-.002a5.447 5.447 0 01.958-1.254v-.003c.126-.123.257-.238.393-.348v.003c.139-.11.282-.21.43-.304a5.191 5.191 0 01.937-.477h.003a5.3 5.3 0 01.498-.168c.169-.047.34-.082.513-.112h.002c.174-.03.35-.055.525-.066.123 0 .246-.028.37-.028.174.001.35 0 .524.03.175.028.35.047.522.083h.003c.173.036.344.077.513.129a5.236 5.236 0 01.964.408 5.441 5.441 0 01.87.595l.002.003a4.95 4.95 0 011.038 1.18l.003.003a5.317 5.317 0 01.473.936l.002.003c.065.165.12.331.168.5a5.2 5.2 0 01.113.51c.03.173.055.35.068.525.008.123.01.246.01.369v.003c0 .175-.008.35-.028.524-.017.176-.044.35-.08.522v.003a5.326 5.326 0 01-.308 1.004 5.26 5.26 0 01-1.168 1.707.781.781 0 00.543 1.343h14.794c.431 0 .781-.35.781-.78V55.424c0-.711-.872-1.053-1.355-.531-.024.03-.055.057-.082.085a5.15 5.15 0 01-.394.35 5.409 5.409 0 01-.424.302h-.002a5.682 5.682 0 01-.937.478h-.003c-.164.063-.331.12-.5.167a5.36 5.36 0 01-.51.112h-.003c-.173.03-.346.055-.522.066h-.002c-.124 0-.246.027-.37.027-.175 0-.35 0-.525-.027-.174-.027-.35-.047-.521-.082h-.003a5.466 5.466 0 01-.513-.13 5.23 5.23 0 01-.491-.18h-.003a5.398 5.398 0 01-1.727-1.182v-.003a5.156 5.156 0 01-.348-.39v-.004a5.245 5.245 0 01-.305-.426v-.003a4.954 4.954 0 01-.262-.452V53.6a5.282 5.282 0 01-.214-.482l-.003-.003a5.198 5.198 0 01-.28-1.01 5.294 5.294 0 01-.065-.521v-.003a5.572 5.572 0 01.093-1.416l.003-.002a5.27 5.27 0 01.128-.51v-.002c.051-.168.112-.331.18-.492h-.003a5.457 5.457 0 01.506-.921v-.003a5.754 5.754 0 01.68-.805h.004c.124-.12.254-.236.39-.344l.003-.003c.137-.107.28-.211.427-.305.147-.094.3-.181.455-.26l.003-.004c.156-.079.316-.15.479-.213h.005a5.34 5.34 0 01.5-.168 4.59 4.59 0 01.507-.112l.003-.003c.173-.03.35-.052.525-.063h.37c.175 0 .352 0 .527.027.175.028.347.044.519.08l.006.003a5.286 5.286 0 011.004.31v-.003c.161.069.319.148.472.233a5.502 5.502 0 01.867.592l.003.002c.129.107.254.222.372.342.49.496 1.336.148 1.337-.549V32.21c0-.431-.35-.78-.781-.78H57.883c.669-1.074 1.14-2.257 1.141-3.542 0-3.765-3.07-6.833-6.835-6.833L52.187 21z" fill="#fff"/></g><defs><clipPath id="clip0"><path fill="#fff" d="M0 0h102v102H0z"/></clipPath></defs></svg>