<svg width="100" height="100" fill="none" xmlns="http://www.w3.org/2000/svg"><path fill-rule="evenodd" clip-rule="evenodd" d="M100 49.883c0 27.634-22.482 50.116-50.117 50.116C22.248 100 0 77.517 0 49.883 0 22.483 22.248 0 49.883 0S100 22.482 100 49.883z" fill="#E4AE52"/><path opacity=".25" d="M54.462 99.536c1.843-.17 3.73-.19 5.511-.555a49.675 49.675 0 009.4-2.924 50.097 50.097 0 0015.93-10.754 50.097 50.097 0 0010.754-15.93 49.675 49.675 0 002.924-9.4c.225-1.098.19-2.276.342-3.4L74.884 32.136a14.462 14.462 0 00-.97-.885c-1.035-.863-2.2-1.345-3.4-1.642l-7.239-7.239a7.588 7.588 0 00-.506-.463c-2.313-1.93-5.059-2.941-7.874-2.79-2.815.153-5.64 1.51-7.867 4.181-2.44 2.925-2.589 7.16-2.051 11.81.518 4.476 1.78 9.438 2.704 14.264L28.74 72.083a1.209 1.209 0 00-.244.451c-.012.041-.003.086-.012.128a1.403 1.403 0 00-.036.354c.004.085.029.162.048.245.021.087.037.174.074.256.026.058.069.105.103.159.047.072.08.153.14.213l25.648 25.647z" fill="#000"/><path d="M54.895 19.117c-2.815.152-5.644 1.512-7.87 4.182-2.44 2.925-2.588 7.156-2.05 11.806.517 4.475 1.782 9.44 2.706 14.266L28.74 72.08c-.463.532-.384 1.444.164 1.886l8.035 6.723c1.073.859 2.713-1.191 1.64-2.05l-7.051-5.903 5.001-5.985 7.133 5.903c1.073.858 2.713-1.191 1.64-2.05l-7.05-5.902L49.647 51.01c4.912.048 10.012.364 14.512.082 4.674-.292 8.772-1.149 11.232-4.1 2.25-2.697 3.152-5.734 2.788-8.526-.365-2.793-1.955-5.29-4.264-7.215-2.316-1.932-5.264-2.154-7.87-1.968-.286-2.576-.974-5.456-3.28-7.379-2.313-1.928-5.056-2.939-7.87-2.787z" fill="#fff"/></svg>