<svg width="106" height="107" fill="none" xmlns="http://www.w3.org/2000/svg"><g clip-path="url(#clip0)"><path fill-rule="evenodd" clip-rule="evenodd" d="M105.837 53.124c0 29.204-23.759 52.962-52.962 52.962-29.2 0-52.712-23.758-52.712-52.962C.163 24.17 23.674.41 52.875.41c29.203 0 52.962 23.759 52.962 52.715z" fill="#4B340A"/><path opacity=".25" d="M59.978 105.369c1.175-.16 2.405-.125 3.554-.361a52.627 52.627 0 009.94-3.089 52.885 52.885 0 008.99-4.89 53.4 53.4 0 007.843-6.475A52.945 52.945 0 00101.67 73.72c.631-1.489.957-3.115 1.451-4.67l-39.33-39.33c-1.494-1.377-3.558-2.058-5.709-2.058-1.066 0-2 .305-2.838.767a8.98 8.98 0 00-1.186.787c-.373.29-.725.603-1.058.916-1.326-1.254-3.01-2.47-5.154-2.47-2.156 0-4.147.676-5.637 2.057-1.49 1.381-2.406 3.497-2.406 5.98 0 .571.106 1.12.259 1.657.02.072.028.148.051.22.069.214.194.415.284.625.172.4.347.8.587 1.187.15.24.337.473.51.71.25.343.5.688.793 1.025.21.243.442.482.67.722.16.169.297.342.465.51l11.551 11.551c-.28.113-.941.42-.941.42a.84.84 0 00-.51.36c-.043.061-.053.131-.084.2l-.006.007-5.863-5.863a8.677 8.677 0 00-6.25-2.477v.007a8.802 8.802 0 00-6.185 2.747c-.568.602-.993 1.256-1.374 1.993-.027 0-.045.052-.07.071-3.073 6.602-9.609 10.474-14.777 10.307a.896.896 0 00-.575.245c-.045.04-.064.1-.103.149-.095.119-.189.239-.238.387-.023.067-.008.136-.02.206-.024.143-.05.281-.026.42.016.089.078.15.117.231.042.089.05.193.122.265l41.788 41.788z" fill="#000"/><path d="M47.846 27.66c-2.156 0-4.145.68-5.635 2.061-1.49 1.381-2.406 3.497-2.406 5.979 0 2.761 1.931 5.077 4.33 7.353 2.398 2.277 5.425 4.53 8.178 6.804.386.31.988.31 1.374 0 2.75-2.271 5.772-4.465 8.178-6.735 2.407-2.27 4.33-4.638 4.33-7.422 0-2.507-.913-4.603-2.406-5.98-1.492-1.375-3.553-2.06-5.704-2.06-2.132 0-3.753 1.222-5.085 2.474-1.326-1.255-3.01-2.475-5.154-2.475zM64.75 46.49a8.675 8.675 0 00-6.253 2.474c-1.188 1.157-1.772 2.731-2.13 4.329a22.907 22.907 0 01-2.337 1.03c-.947.209-1 1.862-.069 2.131 0 0 1.051.394 2.337 1.031.29 1.717.748 3.161 2.13 4.948 2.17 2.666 4.803 4.688 7.834 5.842a1.1 1.1 0 00-.068.343v5.498a1.1 1.1 0 102.199 0v-5.223c.779.178 1.583.35 2.405.412.667.05 1.371.096 2.062.07v4.81a1.1 1.1 0 102.2 0V69.1c3.877-.605 8.103-2.376 12.644-5.498.744-.533.297-1.973-.618-1.992-5.17.168-11.704-3.706-14.776-10.309v-.07c-.38-.737-.875-1.39-1.443-1.992-1.666-1.765-3.87-2.702-6.117-2.75zm-23.434.069a8.803 8.803 0 00-6.185 2.75c-.568.6-.994 1.255-1.374 1.992-.028 0-.044.05-.07.07-3.071 6.601-9.606 10.475-14.775 10.308-.915.033-1.362 1.46-.618 1.993 4.566 3.14 8.818 4.902 12.714 5.498v4.879a1.099 1.099 0 102.199 0v-4.605c.667.034 1.348-.032 1.993-.069.822-.063 1.626-.234 2.405-.412v5.017a1.099 1.099 0 102.2 0v-5.498a1.088 1.088 0 00-.001-.139v-.07c2.997-1.158 5.615-3.13 7.765-5.772 1.362-1.762 1.834-3.264 2.13-4.948 1.288-.64 2.337-1.1 2.337-1.1.835-.31.835-1.751 0-2.062 0 0-.956-.361-2.405-1.1-.364-1.573-.89-3.119-2.062-4.26a8.683 8.683 0 00-6.254-2.474l.001.002zm3.78 6.048a1.12 1.12 0 01.137 0c.186-.024.375 0 .55.069a1.105 1.105 0 01.618.756c.065.106.112.222.138.343 0 1.634-1.38 2.955-3.024 2.955a2.946 2.946 0 01-2.955-2.954 1.105 1.105 0 011.65-.898c.219.124.389.32.48.554.018.114.018.23 0 .343 0 .45.373.825.825.825.452 0 .756-.375.756-.825a1.09 1.09 0 01.194-.735c.152-.214.376-.368.63-.433zm15.875.135l.069.001a1.1 1.1 0 01.137 0 1.111 1.111 0 01.897.293 1.094 1.094 0 01.34.875c0 .449.304.825.756.825a.83.83 0 00.824-.825 1.09 1.09 0 010-.343 1.1 1.1 0 011.206-.685 1.093 1.093 0 01.925 1.028 2.946 2.946 0 01-2.955 2.955c-1.644 0-3.024-1.322-3.024-2.955.026-.122.072-.238.138-.344a1.093 1.093 0 01.618-.755c.022-.023.045-.045.069-.066v-.004z" fill="#fff"/></g><defs><clipPath id="clip0"><path fill="#fff" transform="translate(.163 .411)" d="M0 0h105.674v105.674H0z"/></clipPath></defs></svg>