<svg width="100" height="100" fill="none" xmlns="http://www.w3.org/2000/svg"><g clip-path="url(#clip0)"><path fill-rule="evenodd" clip-rule="evenodd" d="M100 49.884c0 27.635-22.483 50.118-50.119 50.118C22.25 100.002 0 77.519 0 49.884 0 22.483 22.249 0 49.881 0 77.517 0 100 22.483 100 49.884z" fill="#E4AE52"/><path opacity=".25" d="M77.88 91.43a50.528 50.528 0 007.423-6.128 50.087 50.087 0 0010.754-15.93 49.67 49.67 0 002.924-9.4L72.403 32.886A15.374 15.374 0 0072 32.5c-3.319-3.087-5.551-3.994-10.488-3.994-.5 0-1.002.033-1.483.073-.034 0-.044.061-.073.068a1.072 1.072 0 00-.354.14c-.051.031-.096.103-.14.14-.062.035-.165.03-.214.067-.005.032.007.061 0 .074L52.5 36.5 45.354 30c-.002-.003-.01.003-.012 0v-.006c-.044-.043-.1-.068-.153-.098l-.012-.012-.132-.132c.017.018.031.039.047.059L45 29.719c-1.993-1.058-6.163-1.213-8.512-1.213-4.942 0-4.768 7.391-8.084 10.494-3.316 3.103-3.211-2.253-3.211 3.5 0 .727.07 1.446.189 2.16.049.296.14.587.207.88.097.417.184.837.318 1.25.102.316 1.62-.079 1.742.235.153.392-.932-.39-.75 0 .148.312-1.682.623-1.517.934v.001c.207.387.413.774.647 1.158.189.31.399.619.604.928.249.373.504.745.775 1.117A39.506 39.506 0 0028.848 53c.553.663-.187 2.025.425 2.684.507.544.954 1.093 1.496 1.635L71 95.5c1.791-.9 5.275-2.925 6.88-4.07z" fill="#000"/><path d="M39.373 28.2c-4.28 0-8.244 1.366-11.116 4.054-2.873 2.688-4.607 6.686-4.607 11.67 0 5.23 3.678 10.09 8.66 14.862 4.982 4.774 11.392 9.483 17.258 14.372.346.276.884.276 1.229 0 5.865-4.887 12.321-9.613 17.32-14.372 4.998-4.758 8.66-9.578 8.66-14.863 0-5.038-1.732-8.995-4.607-11.67-2.875-2.673-6.84-4.053-11.116-4.053-.434 0-.873.02-1.29.061-.03-.005-.036.055-.062.06a.847.847 0 00-.306.123c-.044.026-.084.09-.123.123-.053.03-.141.02-.184.061-.003.025.007.05 0 .061l-7.615 7.678c-.41.436-.28 1.248.245 1.535l2.948 1.474-3.316 4.975c-.244.372-.19.912.123 1.228l3.01 3.01-2.765 1.35c-.3.174-.494.515-.491.86v4.975l-3.624-4.913 1.352-1.351c.374-.418.282-1.162-.185-1.474l-5.22-3.501 1.72-5.22a1.015 1.015 0 00-.492-1.167l-2.948-1.475 3.378-5.22h.062a.933.933 0 00.245-.307c.177-.329.092-.742-.122-1.044-.026-.041-.03-.087-.061-.121-.051-.057-.12-.08-.184-.122-.051-.034-.067-.1-.123-.122-1.727-.916-3.616-1.535-5.65-1.535l-.003-.002z" fill="#fff"/></g><defs><clipPath id="clip0"><path fill="#fff" d="M0 0h100v100H0z"/></clipPath></defs></svg>