<svg width="100" height="100" fill="none" xmlns="http://www.w3.org/2000/svg"><g clip-path="url(#clip0)"><path d="M50 100c27.614 0 50-22.386 50-50S77.614 0 50 0 0 22.386 0 50s22.386 50 50 50z" fill="#4B340A"/><path opacity=".25" d="M70.711 21.284c.18.181.282.427.282.684L100 48.5c.5 15.667-8.5 47.9-48.5 51.5L28.28 76.097a.972.972 0 01-.282-.685l2.608-.137-4.89-4.926c-.057-.057-.104-.121-.158-.181a4.558 4.558 0 01-.153-.184l-.005-.005c-.393-.49-2.014-1.64-2.194-2.244-.023-.08-.048-.157-.067-.238A4.651 4.651 0 0123 66.56v-.008c-.01-.32 1.353-.056 1.413-.376.014-.073.032-.144.05-.216.077-.321.177-.641.333-.949.99-2.286 3.66-3.134 5.81-2.305v-7.293c0-.256.102-.502.282-.684a.957.957 0 01.68-.283l9.006.929a4.1 4.1 0 01-.274-1.025 3.703 3.703 0 01.03-1.149c.192-2.358-2.382-4.084-.195-4.185l.008.008c.72-.032-.393-.805.294-.45.266.119.51.264.736.424.08.057.147.124.221.186.11.09.224.172.323.272l4.943 4.978h3.273a.953.953 0 01.161.02h7.064a4.05 4.05 0 01-.274-1.025 3.744 3.744 0 01.034-1.157c.058-.694 1.006-2.093 1.34-2.653l-8.284-6.854-.007-.008a.958.958 0 01-.672-.283.972.972 0 01-.282-.677v-2.862L45.95 36.28a4.673 4.673 0 01-1.359-3.293v-.008c0-.317.033-.626.094-.926v-.007c.061-.3.155-.59.27-.866.702-1.673 2.346-2.858 4.253-2.858.621 0 1.09.461 1.651.7l-1.844-6.704v-.007c0-.257.1-.503.281-.684a.957.957 0 01.68-.284v-.011h14.044v.011l.012.011 6-.353c.256 0 .5.102.68.284z" fill="#000"/><path d="M49.345 21a.865.865 0 00-.614.256.878.878 0 00-.255.619v6.906c-.507-.215-.93-.632-1.492-.632-2.295 0-4.171 1.896-4.171 4.21 0 2.315 1.876 4.21 4.171 4.21.562 0 .985-.419 1.492-.635v6.91c0 .232.092.454.255.618a.865.865 0 00.614.256h8.075a.863.863 0 00.812-.56.881.881 0 00-.228-.964l-.041-.04a2.466 2.466 0 01-.143-.165h.004a2.56 2.56 0 01-.143-.198h-.003a2.283 2.283 0 01-.217-.43h-.004a2.403 2.403 0 01-.129-.469 2.458 2.458 0 01-.037-.41 2.465 2.465 0 01.112-.728 2.27 2.27 0 01.187-.444 2.52 2.52 0 01.44-.584c.057-.056.12-.108.18-.157h.007c.063-.05.127-.097.193-.14h.004c.07-.046.142-.085.21-.12h.004c.07-.037.142-.07.217-.1h.003a3.07 3.07 0 01.24-.081c.075-.021.146-.038.215-.048h.013c.081-.018.165-.027.248-.034.09 0 .198-.017.163-.017h.196c.145.022.24.032.285.04a2.31 2.31 0 01.682.256 2.649 2.649 0 01.404.278h.003a2.196 2.196 0 01.34.352c.05.065.095.13.138.198h.004a2.46 2.46 0 01.217.434h.003a2.524 2.524 0 01.153 1.128 2.468 2.468 0 01-.099.485 2.374 2.374 0 01-.624 1.028.877.877 0 00.61 1.497h8.073c.23 0 .451-.092.614-.256a.878.878 0 00.254-.619V21.89a.878.878 0 00-.254-.62.865.865 0 00-.614-.255H62.036V21H49.345zm12.694 1.75h7.204v19.212H63.62l.008-.02a3.687 3.687 0 00.189-.65c.027-.136.047-.276.06-.413a4.215 4.215 0 00.014-.715 4.274 4.274 0 00-.274-1.223 4.124 4.124 0 00-.377-.742h-.003a4.273 4.273 0 00-.238-.334h-.003a4.431 4.431 0 00-.272-.315h-.003a4.219 4.219 0 00-.305-.283h-.004a4.396 4.396 0 00-.325-.25h-.004a4.28 4.28 0 00-.35-.219h-.01a3.737 3.737 0 00-.76-.325 4.997 4.997 0 00-.403-.105c-.17-.037-.291-.05-.366-.062-.2-.031-.356-.025-.465-.027h-.003c-.19 0-.271.014-.244.017a.13.13 0 00.01 0h-.068c-.133.017-.265.029-.397.051a3.415 3.415 0 00-.417.093h-.01a4.006 4.006 0 00-.767.304h-.003c-.125.065-.24.136-.353.208h-.007a4.64 4.64 0 00-.332.24h-.007a4.41 4.41 0 00-.848.919 4.168 4.168 0 00-.397.734h-.003a4.093 4.093 0 00-.305 1.214 4.199 4.199 0 00-.014.714 4.25 4.25 0 00.143.823c.035.128.08.254.129.38h-5.624v-7.28a.88.88 0 00-.54-.808.862.862 0 00-.948.197 2.423 2.423 0 01-1.74.745c-1.354 0-2.435-1.093-2.435-2.464 0-1.37 1.081-2.457 2.435-2.457h.004c.654 0 1.278.263 1.736.735a.867.867 0 001.49-.612v-7.276H62.04v-.006zM38.787 48.53c-1.976.091-3.818 1.651-3.992 3.783a3.49 3.49 0 00.22 1.965h-6.47a.865.865 0 00-.615.256.878.878 0 00-.254.619v6.592c-1.944-.749-4.356.018-5.25 2.085-1.251 2.468.392 5.63 3.134 5.97.727.115 1.445-.018 2.116-.274v6.596c0 .232.091.454.254.618a.865.865 0 00.614.257h8.076a.863.863 0 00.808-.562.88.88 0 00-.228-.963c-1.128-1.025-.786-3.269.593-3.912a.813.813 0 00.061-.035c1.268-.719 3.177.192 3.443 1.63a.955.955 0 00.006.038c.183.792-.089 1.727-.668 2.286a.876.876 0 00.6 1.507h7.984a.87.87 0 00.146.014h8.075a.863.863 0 00.812-.56.881.881 0 00-.228-.964c-1.127-1.026-.79-3.273.59-3.916a.865.865 0 00.061-.035c1.268-.719 3.177.192 3.443 1.63a.996.996 0 00.01.038c.182.792-.09 1.727-.668 2.286a.878.878 0 00.6 1.507h7.933a.863.863 0 00.488-.075l.024-.017a.872.872 0 00.475-.974v-7.962a.88.88 0 00-.545-.812.863.863 0 00-.95.207c-.522.547-1.36.83-2.1.71h-.034c-1.486-.174-2.502-2.137-1.808-3.468a.837.837 0 00.03-.061c.61-1.44 2.863-1.79 3.894-.646a.866.866 0 001.513-.588v-7.744l-.224.188a.877.877 0 00-.624-1.483h-6.526c.744-1.958-.01-4.388-2.058-5.297a3.831 3.831 0 00-1.94-.434c-1.974.09-3.81 1.648-3.989 3.776-.135.727-.016 1.4.217 1.972h-6.383a.857.857 0 00-.146-.01h-6.525c.743-1.958-.008-4.388-2.055-5.297a3.82 3.82 0 00-1.94-.434v-.007zm.078 1.784a1.97 1.97 0 011.15.243c1.429.62 1.772 2.898.637 3.94a.877.877 0 00.584 1.52h7.26v5.728c-1.94-.746-4.346.018-5.242 2.078-1.258 2.47.386 5.637 3.13 5.977.726.113 1.443 0 2.113-.27v5.707H42.74c.3-.771.44-1.592.255-2.416-.505-2.66-3.6-4.136-5.96-2.83-1.976.943-2.708 3.326-1.977 5.252h-5.647v-7.278a.879.879 0 00-.544-.812.863.863 0 00-.951.207c-.52.546-1.36.83-2.1.71h-.037c-1.486-.174-2.499-2.137-1.804-3.468.01-.02.018-.04.027-.062.61-1.44 2.865-1.79 3.897-.646a.868.868 0 00.957.23.87.87 0 00.555-.817V56.03h7.126a.864.864 0 00.779-.486.881.881 0 00-.087-.918c-.344-.455-.837-1.544-.74-2.017a.872.872 0 00.014-.12c.076-1.161 1.226-2.086 2.36-2.176zm20.824.004c.378-.03.754.03 1.089.208v-.007l.06.03c1.43.621 1.77 2.9.635 3.941a.876.876 0 00-.223.963.874.874 0 00.81.558h7.183v5.734c-1.94-.746-4.35.018-5.246 2.078-1.257 2.47.386 5.637 3.13 5.977.728.115 1.446-.018 2.116-.274v5.714h-5.677c.3-.77.44-1.591.254-2.416-.505-2.659-3.6-4.135-5.959-2.83-1.977.944-2.71 3.33-1.977 5.256h-5.65v-7.282a.88.88 0 00-.545-.808.862.862 0 00-.948.203c-.52.547-1.359.831-2.1.71h-.037c-1.486-.174-2.502-2.137-1.807-3.468l.03-.061c.61-1.44 2.866-1.79 3.897-.646a.867.867 0 00.954.226.869.869 0 00.555-.814v-7.275h7.13a.864.864 0 00.775-.488.881.881 0 00-.087-.917c-.344-.455-.837-1.543-.74-2.016a.894.894 0 00.018-.12c.076-1.162 1.225-2.086 2.36-2.176z" fill="#fff"/><path d="M69.243 22.75H62.04v.006H50.213v7.276a.88.88 0 01-.54.81.862.862 0 01-.949-.198 2.413 2.413 0 00-1.736-.735h-.004a2.432 2.432 0 00-2.435 2.457c0 1.371 1.08 2.464 2.435 2.464.653 0 1.282-.27 1.74-.745a.866.866 0 011.488.612v7.279h5.623a4.237 4.237 0 01-.128-.38 4.342 4.342 0 01-.143-.823 4.199 4.199 0 01.014-.714 4.178 4.178 0 01.305-1.214h.003a4.245 4.245 0 01.648-1.066 4.333 4.333 0 01.597-.588h.007a4.64 4.64 0 01.332-.239h.007c.113-.072.228-.143.353-.208h.003a4.006 4.006 0 01.767-.304h.01c.133-.039.273-.07.417-.093.132-.022.264-.034.397-.051h.058c-.027-.003.054-.017.244-.017h.003c.109.002.266-.004.465.027.075.013.196.025.366.062.127.028.263.062.404.106a3.737 3.737 0 01.76.324h.01c.117.065.232.139.35.22h.003c.109.075.218.158.325.249h.004c.103.087.207.182.305.283h.003c.096.101.186.206.272.315h.003c.085.108.163.217.238.334h.003a4.185 4.185 0 01.577 3.093 3.687 3.687 0 01-.189.65l-.008.02h5.623V22.75zM38.865 50.314a1.97 1.97 0 011.15.243c1.429.62 1.772 2.898.637 3.94a.877.877 0 00.584 1.52h7.26v5.728c-1.94-.746-4.346.018-5.242 2.078-1.258 2.47.386 5.637 3.13 5.977.726.113 1.443 0 2.113-.27v5.707H42.74c.3-.771.44-1.592.255-2.416-.505-2.66-3.6-4.136-5.96-2.83-1.976.943-2.708 3.326-1.977 5.252h-5.647v-7.278a.879.879 0 00-.544-.812.863.863 0 00-.951.207c-.52.546-1.36.83-2.1.71h-.037c-1.486-.174-2.499-2.137-1.804-3.468.01-.02.018-.04.027-.062.61-1.44 2.865-1.79 3.897-.646a.868.868 0 00.957.23.87.87 0 00.555-.817V56.03h7.126a.864.864 0 00.779-.486.881.881 0 00-.087-.918c-.344-.455-.837-1.544-.74-2.017a.872.872 0 00.014-.12c.076-1.161 1.226-2.086 2.36-2.176z" fill="#fff"/><path d="M59.69 50.318c.377-.03.753.03 1.088.208v-.007l.06.03c1.43.621 1.77 2.9.635 3.941a.876.876 0 00-.223.963.874.874 0 00.81.558h7.183v5.734c-1.94-.746-4.35.018-5.246 2.078-1.257 2.47.386 5.637 3.13 5.977.728.115 1.446-.018 2.116-.274v5.714h-5.677c.3-.77.44-1.591.254-2.416-.505-2.659-3.6-4.135-5.959-2.83-1.977.944-2.71 3.33-1.977 5.256h-5.65v-7.282a.88.88 0 00-.545-.808.862.862 0 00-.948.203c-.52.547-1.359.831-2.1.71h-.037c-1.486-.174-2.502-2.137-1.807-3.468l.03-.061c.61-1.44 2.866-1.79 3.897-.646a.867.867 0 00.954.226.869.869 0 00.555-.814v-7.275h7.13a.864.864 0 00.775-.488.881.881 0 00-.087-.917c-.344-.455-.837-1.543-.74-2.016a.894.894 0 00.018-.12c.076-1.162 1.225-2.086 2.36-2.176z" fill="#fff"/></g><defs><clipPath id="clip0"><path fill="#fff" d="M0 0h100v100H0z"/></clipPath></defs></svg>