<svg width="100" height="100" fill="none" xmlns="http://www.w3.org/2000/svg"><path fill-rule="evenodd" clip-rule="evenodd" d="M100 50c0 27.575-22.425 50-50 50S0 77.575 0 50 22.425 0 50 0s50 22.425 50 50z" fill="#E4AE52"/><path opacity=".25" d="M56.86 99.304c1.058-.147 2.17-.11 3.205-.323a49.577 49.577 0 009.38-2.918 49.922 49.922 0 008.49-4.614A50.375 50.375 0 0091.45 77.936a49.922 49.922 0 004.614-8.49 49.585 49.585 0 002.918-9.381c.082-.399.056-.831.128-1.233L66.827 26.55a6.007 6.007 0 00-4.272-1.745c-.62 0-1.238.133-1.813.354-.339.13-.61.342-.91.525l-2.6-2.6-.018-.019a8.492 8.492 0 00-1.062-.885c-.108-.077-.223-.142-.335-.213a7.614 7.614 0 00-2.21-.97c-.14-.038-.277-.082-.421-.11a7.249 7.249 0 00-1.416-.153c-4.245 0-7.782 3.537-7.782 8.136 0 .616.075 1.21.202 1.782.04.184.111.352.164.53.113.378.24.744.403 1.093.09.19.19.369.293.55.178.31.375.604.592.885.132.17.264.336.409.494.074.081.13.179.207.257l.782.78h-5.884c-2.476 0-4.419 1.944-4.419 4.42v5.658l-11.322-6.543-.006-.007c-.172-.171-.173-.17-.348-.17-.53 0-1.062.354-1.062.885v26.709c0 .154.088.3.207.433.014.015.01.034.025.049l32.63 32.63z" fill="#000"/><path d="M51.769 20.735c3.36 0 6.19 2.3 7.428 5.306.885-.707 2.123-1.238 3.36-1.238 3.361 0 6.014 2.653 6.014 6.014 0 1.592-.707 3.184-1.768 4.245h4.775A4.379 4.379 0 0176 39.483l-.177 26.708a4.379 4.379 0 01-4.422 4.421H41.157a4.379 4.379 0 01-4.422-4.421v-5.66l-11.32 6.367c-.53.354-1.415-.177-1.415-.707V39.483c0-.53.531-.884 1.062-.884.177 0 .177 0 .353.177l11.32 6.544v-5.66a4.379 4.379 0 014.422-4.421h6.014c-1.946-1.415-3.184-3.715-3.184-6.368 0-4.598 3.537-8.136 7.782-8.136zm6.013 13.089c-.353.53-.884.884-1.238 1.238h2.3c-.531-.53-.885-.708-1.062-1.238zm-2.122 8.312c-.177 0-.177 0 0 0H42.749c-.531 0-.885.354-.885.885 0 .53.354.884.885.884h12.38c.53.177 1.062-.177 1.238-.707 0-.354-.176-1.062-.707-1.062zm12.204 17.687h-14.15c-1.415 0-2.653 1.238-2.653 2.653s1.238 2.653 2.653 2.653h14.15c1.415 0 2.653-1.238 2.653-2.653s-1.238-2.653-2.653-2.653zm0 1.769c.53 0 .884.354.884.884s-.354.885-.884.885h-14.15c-.53 0-.884-.354-.884-.885 0-.53.354-.884.708-.884h14.326z" fill="#fff"/></svg>