<svg width="100" height="100" fill="none" xmlns="http://www.w3.org/2000/svg"><path d="M50 100c27.614 0 50-22.386 50-50S77.614 0 50 0 0 22.386 0 50s22.386 50 50 50z" fill="#4B340A"/><path opacity=".25" d="M60.506 98.82a50.06 50.06 0 002.873-.643 50.011 50.011 0 004.736-1.579 50.037 50.037 0 004.566-2.034 49.979 49.979 0 0012.158-8.7 50.036 50.036 0 003.401-3.654 50.022 50.022 0 005.64-8.235 49.998 49.998 0 002.173-4.5 50.001 50.001 0 001.717-4.696 50.017 50.017 0 001.082-4.24L69.157 30.843A26.994 26.994 0 0050 22.917c-14.983 0-27.084 12.101-27.084 27.083a26.993 26.993 0 007.927 19.157L60.506 98.82z" fill="#000"/><path fill-rule="evenodd" clip-rule="evenodd" d="M77.083 50c0-14.982-12.1-27.084-27.083-27.084-14.983 0-27.084 12.102-27.084 27.084S35.017 77.083 50 77.083c14.982 0 27.083-12.1 27.083-27.083zM46.55 54.188v1.63h5.837v-1.321c0-.882.184-1.594.551-2.137.382-.544 1.278-1.337 2.687-2.38 2.056-1.468 3.451-2.79 4.186-3.964.734-1.175 1.101-2.57 1.101-4.185 0-2.423-.896-4.362-2.687-5.816-1.777-1.453-4.178-2.18-7.203-2.18-3.672 0-7.145.917-10.42 2.753l2.401 4.824c2.82-1.44 5.331-2.159 7.534-2.159 1.263 0 2.247.25 2.952.75.705.499 1.057 1.225 1.057 2.18 0 .852-.25 1.623-.749 2.313-.484.69-1.498 1.586-3.04 2.687-1.6 1.175-2.702 2.284-3.304 3.327-.602 1.042-.903 2.268-.903 3.678zm.286 6.366c-.66.632-.99 1.564-.99 2.798 0 1.19.337 2.114 1.012 2.775.676.646 1.63.97 2.864.97 1.204 0 2.144-.331 2.82-.992.675-.675 1.013-1.593 1.013-2.753 0-1.204-.338-2.13-1.014-2.776-.66-.646-1.6-.969-2.819-.969-1.263 0-2.225.316-2.886.947z" fill="#fff"/></svg>