<svg width="100" height="100" fill="none" xmlns="http://www.w3.org/2000/svg"><path fill-rule="evenodd" clip-rule="evenodd" d="M100 50c0 27.575-22.425 50-50.166 50C22.093 100 0 77.575 0 50S22.26 0 50 0s50 22.425 50 50z" fill="#4B340A"/><path opacity=".25" d="M56.097 99.371c1.278-.16 2.612-.136 3.858-.39A50.123 50.123 0 0085.32 85.34a50.31 50.31 0 006.122-7.404 49.52 49.52 0 007.538-17.871c.262-1.278.24-2.644.402-3.955L74.774 31.5a4.465 4.465 0 00-3.18-1.3H28.406a4.437 4.437 0 00-4.48 4.48v30.64c0 1.254.494 2.373 1.3 3.18L56.097 99.37z" fill="#000"/><path d="M28.408 30.2a4.436 4.436 0 00-4.48 4.48V65.32a4.436 4.436 0 004.48 4.48h43.185a4.436 4.436 0 004.48-4.48V34.68a4.436 4.436 0 00-4.48-4.48H28.408zm17.203 10.93c.179 0 .179 0 .358.18l12.543 7.884c.18 0 .18.18.18.18.358.358.178 1.075-.18 1.433L45.969 58.87c-.538.359-1.255-.179-1.255-.896V42.027c0-.538.538-.896.897-.896z" fill="#fff"/></svg>