<svg width="100" height="100" fill="none" xmlns="http://www.w3.org/2000/svg"><g clip-path="url(#clip0)"><path d="M50.002 99.998c27.614 0 50-22.386 50-50 0-27.615-22.385-50-50-50s-50 22.385-50 50c0 27.614 22.386 50 50 50z" fill="#E4AE52"/><path opacity=".25" d="M48.477 99.973c.362.021 1.16.013 1.523.027a50.02 50.02 0 0013.375-1.823 50.006 50.006 0 004.745-1.575 49.993 49.993 0 008.894-4.528 50.028 50.028 0 007.821-6.206 50.001 50.001 0 003.406-3.658 50.023 50.023 0 005.64-8.24 49.998 49.998 0 005.122-14.038c.332-1.633.582-3.281.749-4.94.12-1.332.235-2.154.248-3.492L72.008 23.816l-.466.226c0-.277-.11-.542-.305-.737C71.04 23.11 70.277 23 70 23l-10.633-.1-1.033-1.033v-.008a1.042 1.042 0 00-1.042-1.042H56.03l-2.905-2.905c-.022-.022-.05-.04-.073-.061a4.044 4.044 0 00-.472-.383c-.052-.036-.1-.075-.155-.11a4.32 4.32 0 00-.598-.313c-.045-.02-.088-.043-.134-.061a4.534 4.534 0 00-.806-.24A4.614 4.614 0 0050 16.65v.009c-1.933 0-3.675 1.208-4.077 2.941a3.39 3.39 0 00-.09.765v.008c0 .156.036.302.058.452h-3.182a1.042 1.042 0 00-1.042 1.042v1.054a1.047 1.047 0 00-.163-.02H30.161c-.276 0-1.539.754-1.734.949-.195.195-.69.403-.69.68l-.653 1.51V75.5l.11.772a1.042 1.042 0 001.034 1.033l-.474.684 20.723 21.984zm5.637-79.2l.004.003v.009l-.004-.005v-.008z" fill="#000"/><path d="M50 18.75c1.246 0 2.084.812 2.084 1.623 0 .203-.048.395-.139.578-.044.09-.1.181-.17.269a1.041 1.041 0 00.968 1.697h3.507V25h-12.5v-2.084h3.504a1.041 1.041 0 00.972-1.696 1.507 1.507 0 01-.17-.269 1.282 1.282 0 01-.14-.578c0-.811.838-1.623 2.084-1.623z" fill="#fff"/><path fill-rule="evenodd" clip-rule="evenodd" d="M41.667 24.988v1.053a1.042 1.042 0 001.041 1.042h14.584a1.042 1.042 0 001.041-1.041V25h12.5v52.083H29.168V25h12.337c.055 0 .109-.004.163-.012zm-10.112 4.484c.196-.196.46-.306.737-.306h35.657a1.042 1.042 0 011.041 1.042v43.75A1.041 1.041 0 0167.95 75H32.292a1.041 1.041 0 01-1.042-1.042v-43.75c0-.276.11-.541.305-.736z" fill="#fff"/><path fill-rule="evenodd" clip-rule="evenodd" d="M50 16.666c-2.206 0-4.166 1.575-4.166 3.707 0 .114.018.223.036.332l.02.128H42.71a1.042 1.042 0 00-1.042 1.042v1.054a1.042 1.042 0 00-.163-.012h-11.42a3 3 0 00-3 3v50.25a3 3 0 003 3H69.92a3 3 0 003-2.996l.075-50.184a3 3 0 00-2.983-3.004l-11.68-.067v-1.041a1.042 1.042 0 00-1.041-1.042H54.11a4.83 4.83 0 01.02-.128c.019-.11.037-.218.037-.332 0-2.132-1.96-3.707-4.167-3.707zm2.084 3.707c0-.811-.838-1.623-2.084-1.623s-2.083.812-2.083 1.623c0 .203.047.395.138.578.046.092.103.183.171.269a1.043 1.043 0 01-.972 1.697H43.75V25h12.5v-2.084h-3.507a1.041 1.041 0 01-.969-1.696c.07-.088.127-.18.171-.269.091-.183.139-.375.139-.578zm-10.417 5.668v-1.053a1.042 1.042 0 01-.163.012H29.167v52.083h41.666V25h-12.5v1.041a1.042 1.042 0 01-1.041 1.042H42.708a1.042 1.042 0 01-1.041-1.041z" fill="#fff"/><path fill-rule="evenodd" clip-rule="evenodd" d="M52.084 20.373c0-.811-.838-1.623-2.084-1.623s-2.083.812-2.083 1.623c0 .203.047.395.138.578.046.092.103.183.171.269a1.043 1.043 0 01-.972 1.697H43.75V25h12.5v-2.084h-3.507a1.041 1.041 0 01-.969-1.696c.07-.088.127-.18.171-.269.091-.183.139-.375.139-.578zm-10.417 4.615a1.042 1.042 0 01-.163.012H29.167v52.083h41.666V25h-12.5v1.041a1.042 1.042 0 01-1.041 1.042H42.708a1.042 1.042 0 01-1.041-1.041v-1.054zm25.24 6.262H33.334v41.666h33.573V31.25z" fill="#fff"/><path fill-rule="evenodd" clip-rule="evenodd" d="M30.075 28.571h39.098v48.12H30.075v-48.12zm7.587 2.759a1.218 1.218 0 011.715 0l3.43 3.402a1.205 1.205 0 01.374.856 1.195 1.195 0 01-.356.863 1.214 1.214 0 01-.87.352 1.222 1.222 0 01-.863-.37l-1.364-1.353c.19 15.366 9.516 29.052 23.526 34.478a1.217 1.217 0 01.67.64 1.195 1.195 0 01-.238 1.316 1.214 1.214 0 01-.851.368 1.223 1.223 0 01-.467-.082c-14.962-5.796-24.873-20.387-25.067-36.71l-1.355 1.343a1.213 1.213 0 01-.862.37 1.22 1.22 0 01-1.136-.748 1.195 1.195 0 01.283-1.323l3.43-3.402zm10.165 6.94a1.221 1.221 0 011.607.653c.06.15.09.31.088.47v1.208h1.232a1.222 1.222 0 01.87.347 1.205 1.205 0 01.36.856 1.195 1.195 0 01-.36.857 1.213 1.213 0 01-.87.346h-1.232v1.161a1.193 1.193 0 01-.349.862 1.212 1.212 0 01-.864.358 1.223 1.223 0 01-.864-.358 1.204 1.204 0 01-.349-.862v-1.16h-1.208a1.222 1.222 0 01-.87-.347 1.201 1.201 0 01-.267-1.321 1.203 1.203 0 01.667-.652c.15-.06.309-.089.47-.087h1.208v-1.207a1.195 1.195 0 01.342-.856c.11-.114.243-.205.39-.267zm7.723 7.143c0-1.978 1.644-3.609 3.639-3.609 1.995 0 3.634 1.63 3.634 3.61 0 1.978-1.64 3.608-3.634 3.608-1.995 0-3.64-1.63-3.64-3.609zM34.928 58.647c0-1.98 1.643-3.61 3.639-3.61 1.995 0 3.639 1.63 3.639 3.61 0 1.979-1.644 3.608-3.64 3.608-1.995 0-3.639-1.63-3.639-3.608zm25.002-3.51a1.222 1.222 0 011.606.652c.06.15.091.31.088.47v1.213h1.237a1.222 1.222 0 01.87.346 1.203 1.203 0 01.36.857 1.193 1.193 0 01-.36.856 1.214 1.214 0 01-.87.347h-1.237v1.212a1.194 1.194 0 01-.349.862 1.214 1.214 0 01-.864.358 1.223 1.223 0 01-.864-.358 1.201 1.201 0 01-.349-.862v-1.212h-1.203a1.222 1.222 0 01-.87-.347 1.201 1.201 0 01-.267-1.32 1.203 1.203 0 01.667-.653c.15-.06.309-.089.47-.086h1.203v-1.213a1.193 1.193 0 01.342-.856c.111-.113.243-.204.39-.267zM45.34 64.76a1.222 1.222 0 011.34.254 1.203 1.203 0 01.355.87v1.183h1.217a1.222 1.222 0 01.87.347 1.201 1.201 0 01.267 1.32 1.202 1.202 0 01-.667.653c-.15.06-.309.089-.47.087h-1.218v1.188a1.197 1.197 0 01-.744 1.127 1.223 1.223 0 01-1.332-.265 1.202 1.202 0 01-.35-.862v-1.189h-1.222a1.222 1.222 0 01-.87-.346 1.204 1.204 0 01-.36-.856 1.195 1.195 0 01.36-.857 1.213 1.213 0 01.87-.347h1.222v-1.184a1.193 1.193 0 01.342-.856c.111-.113.243-.204.39-.267z" fill="#fff"/><path d="M38.567 57.444a1.19 1.19 0 011.213 1.203 1.19 1.19 0 01-1.213 1.203 1.19 1.19 0 01-1.213-1.203c0-.68.529-1.203 1.213-1.203zM59.189 44.21c.683 0 1.208.524 1.208 1.203 0 .68-.525 1.203-1.208 1.203a1.19 1.19 0 01-1.213-1.203c0-.679.53-1.203 1.213-1.203z" fill="#fff"/><path fill-rule="evenodd" clip-rule="evenodd" d="M30.075 28.571h39.098v48.12H30.075v-48.12zm8.425 2.406a1.218 1.218 0 00-.838.353l-3.431 3.402a1.203 1.203 0 00-.373.856 1.195 1.195 0 00.355.863 1.213 1.213 0 00.87.352 1.22 1.22 0 00.863-.37l1.355-1.344c.194 16.324 10.105 30.915 25.067 36.71a1.223 1.223 0 001.318-.285 1.202 1.202 0 00.238-1.317 1.204 1.204 0 00-.67-.639c-14.01-5.427-23.336-19.112-23.526-34.478l1.364 1.353a1.214 1.214 0 00.863.37 1.22 1.22 0 00.87-.352 1.203 1.203 0 00.356-.863 1.197 1.197 0 00-.373-.856l-3.431-3.402a1.215 1.215 0 00-.877-.353zm9.327 7.294a1.221 1.221 0 011.607.652c.06.15.09.31.088.47v1.208h1.232a1.222 1.222 0 01.87.347 1.205 1.205 0 01.36.856 1.195 1.195 0 01-.36.857 1.213 1.213 0 01-.87.346h-1.232v1.161a1.193 1.193 0 01-.349.862 1.212 1.212 0 01-.864.358 1.223 1.223 0 01-.864-.358 1.204 1.204 0 01-.349-.862v-1.16h-1.208a1.222 1.222 0 01-.87-.347 1.201 1.201 0 01-.267-1.321 1.203 1.203 0 01.667-.652c.15-.06.309-.089.47-.087h1.208v-1.207a1.195 1.195 0 01.342-.856c.11-.114.243-.205.39-.267zm11.362 3.533c-1.995 0-3.64 1.63-3.64 3.61 0 1.978 1.645 3.608 3.64 3.608s3.634-1.63 3.634-3.609c0-1.978-1.64-3.609-3.634-3.609zm1.208 3.61c0-.68-.525-1.204-1.208-1.204a1.19 1.19 0 00-1.213 1.203c0 .68.53 1.203 1.213 1.203s1.208-.523 1.208-1.203zm-.467 9.722a1.222 1.222 0 011.606.653c.06.15.091.31.088.47v1.213h1.237a1.222 1.222 0 01.87.346 1.203 1.203 0 01.36.857 1.193 1.193 0 01-.36.856 1.214 1.214 0 01-.87.347h-1.237v1.212a1.194 1.194 0 01-.349.862 1.214 1.214 0 01-.864.358 1.223 1.223 0 01-.864-.358 1.201 1.201 0 01-.349-.862v-1.212h-1.203a1.222 1.222 0 01-.87-.347 1.201 1.201 0 01-.267-1.32 1.203 1.203 0 01.667-.653c.15-.06.309-.089.47-.086h1.203v-1.213a1.193 1.193 0 01.342-.856c.111-.113.243-.204.39-.267zm-21.363-.099c-1.996 0-3.64 1.63-3.64 3.61 0 1.979 1.644 3.608 3.64 3.608 1.995 0 3.639-1.63 3.639-3.608 0-1.98-1.644-3.61-3.64-3.61zm1.213 3.61a1.19 1.19 0 00-1.213-1.203 1.19 1.19 0 00-1.213 1.203c0 .68.529 1.203 1.213 1.203a1.19 1.19 0 001.213-1.203zm5.56 6.113a1.222 1.222 0 011.34.254 1.203 1.203 0 01.355.87v1.183h1.217a1.222 1.222 0 01.87.347 1.201 1.201 0 01.267 1.32 1.202 1.202 0 01-.667.653c-.15.06-.309.089-.47.087h-1.218v1.188a1.197 1.197 0 01-.744 1.127 1.223 1.223 0 01-1.332-.265 1.202 1.202 0 01-.35-.862v-1.189h-1.222a1.222 1.222 0 01-.87-.346 1.204 1.204 0 01-.36-.856 1.195 1.195 0 01.36-.857 1.213 1.213 0 01.87-.347h1.222v-1.184a1.193 1.193 0 01.342-.856c.111-.113.243-.204.39-.267z" fill="#fff"/></g><defs><clipPath id="clip0"><path fill="#fff" d="M0 0h100v100H0z"/></clipPath></defs></svg>