<svg width="110" height="80" fill="none" xmlns="http://www.w3.org/2000/svg"><path d="M23.674 80c9.432 0 16.265-3.357 20.5-10.072 1.924-2.878 3.464-6.427 4.619-10.647 1.154-4.221 1.732-8.633 1.732-13.238 0-9.976-2.502-18.993-7.507-27.05C37.821 10.935 30.218 4.604 20.21 0l-2.599 5.18c5.582 2.302 10.49 5.851 14.725 10.647 4.042 4.796 6.448 9.689 7.218 14.677.577 2.302.866 4.508.866 6.618 0 1.919-.289 3.741-.866 5.468-4.235-4.604-9.817-6.907-16.746-6.907-6.736 0-12.222 2.015-16.456 6.044C2.117 45.564 0 50.935 0 57.842c0 6.523 2.213 11.894 6.64 16.115C11.067 77.986 16.745 80 23.675 80zm59.476 0c9.43 0 16.264-3.357 20.498-10.072 1.925-2.878 3.465-6.427 4.62-10.647C109.423 55.06 110 50.648 110 46.043c0-9.976-2.502-18.993-7.507-27.05C97.297 10.935 89.693 4.604 79.685 0l-2.598 5.18c5.581 2.302 10.49 5.851 14.724 10.647 4.042 4.796 6.448 9.689 7.218 14.677.577 2.302.866 4.508.866 6.618 0 1.919-.289 3.741-.866 5.468-4.235-4.604-9.816-6.907-16.745-6.907-6.737 0-12.223 2.015-16.457 6.044-4.235 3.837-6.352 9.208-6.352 16.115 0 6.523 2.213 11.894 6.64 16.115C70.542 77.986 76.221 80 83.15 80z" fill="#4B340A"/></svg>